<svg width="217" height="48" viewBox="0 0 217 48" fill="none" xmlns="http://www.w3.org/2000/svg">
<path d="M73.7072 15.9678V31H70.0455V21.985L66.6836 31H63.7286L60.3453 21.9636V31H56.6836V15.9678H61.0091L65.2275 26.3747L69.4031 15.9678H73.7072ZM85.698 28.3447H80.0877L79.1884 31H75.3554L80.7944 15.9678H85.0342L90.4732 31H86.5974L85.698 28.3447ZM84.7558 25.5182L82.8929 20.0149L81.0513 25.5182H84.7558ZM99.7945 31L96.6682 25.3255H95.7902V31H92.1286V15.9678H98.2742C99.4591 15.9678 100.465 16.1748 101.293 16.5888C102.136 17.0028 102.764 17.5738 103.178 18.3019C103.592 19.0157 103.799 19.8151 103.799 20.7002C103.799 21.6995 103.513 22.5917 102.942 23.3768C102.386 24.162 101.558 24.7187 100.458 25.0471L103.927 31H99.7945ZM95.7902 22.7344H98.0601C98.731 22.7344 99.2306 22.5703 99.559 22.2419C99.9016 21.9136 100.073 21.4496 100.073 20.8501C100.073 20.279 99.9016 19.8294 99.559 19.501C99.2306 19.1727 98.731 19.0085 98.0601 19.0085H95.7902V22.7344ZM114.813 31L109.759 24.3619V31H106.097V15.9678H109.759V22.5631L114.77 15.9678H119.074L113.249 23.334L119.288 31H114.813ZM124.69 18.9015V21.9421H129.594V24.7687H124.69V28.0664H130.236V31H121.028V15.9678H130.236V18.9015H124.69ZM143.427 15.9678V18.9015H139.444V31H135.782V18.9015H131.799V15.9678H143.427ZM161.259 20.8072C161.259 21.678 161.059 22.4775 160.659 23.2055C160.259 23.9193 159.645 24.4975 158.817 24.94C157.989 25.3826 156.962 25.6038 155.734 25.6038H153.464V31H149.802V15.9678H155.734C156.933 15.9678 157.947 16.1748 158.775 16.5888C159.603 17.0028 160.224 17.5738 160.638 18.3019C161.052 19.0299 161.259 19.8651 161.259 20.8072ZM155.456 22.6916C156.155 22.6916 156.676 22.5274 157.019 22.1991C157.361 21.8708 157.533 21.4068 157.533 20.8072C157.533 20.2077 157.361 19.7437 157.019 19.4154C156.676 19.087 156.155 18.9229 155.456 18.9229H153.464V22.6916H155.456ZM166.827 28.1734H171.623V31H163.165V15.9678H166.827V28.1734ZM182.727 28.3447H177.117L176.218 31H172.385L177.824 15.9678H182.063L187.502 31H183.627L182.727 28.3447ZM181.785 25.5182L179.922 20.0149L178.081 25.5182H181.785ZM188.537 23.4625C188.537 21.9778 188.858 20.6573 189.5 19.501C190.143 18.3304 191.035 17.4239 192.177 16.7815C193.333 16.1249 194.64 15.7965 196.096 15.7965C197.88 15.7965 199.408 16.2676 200.678 17.2098C201.949 18.152 202.798 19.4368 203.226 21.0642H199.201C198.901 20.4361 198.473 19.9578 197.916 19.6295C197.373 19.3012 196.752 19.137 196.053 19.137C194.925 19.137 194.012 19.5296 193.312 20.3147C192.613 21.0999 192.263 22.1491 192.263 23.4625C192.263 24.7758 192.613 25.8251 193.312 26.6103C194.012 27.3954 194.925 27.788 196.053 27.788C196.752 27.788 197.373 27.6238 197.916 27.2955C198.473 26.9672 198.901 26.4889 199.201 25.8608H203.226C202.798 27.4882 201.949 28.773 200.678 29.7152C199.408 30.6431 197.88 31.1071 196.096 31.1071C194.64 31.1071 193.333 30.7859 192.177 30.1435C191.035 29.4868 190.143 28.5803 189.5 27.424C188.858 26.2676 188.537 24.9472 188.537 23.4625ZM209.13 18.9015V21.9421H214.034V24.7687H209.13V28.0664H214.677V31H205.469V15.9678H214.677V18.9015H209.13Z" fill="#33444D"/>
<path d="M22.5141 0L0 23.1111H11.0784L33.8307 0H22.5141ZM23.8245 13.2741L1.31034 36.3852H12.3887L35.1411 13.2741H23.8245ZM26.6834 24.8889L4.16928 48H15.2476L38 24.8889H26.6834Z" fill="#F2A809"/>
</svg>
