<svg width="210" height="48" viewBox="0 0 210 48" fill="none" xmlns="http://www.w3.org/2000/svg">
<path d="M66.7072 18.9678V34H63.0455V24.985L59.6836 34H56.7286L53.3453 24.9636V34H49.6836V18.9678H54.0091L58.2275 29.3747L62.4031 18.9678H66.7072ZM78.698 31.3447H73.0877L72.1884 34H68.3554L73.7944 18.9678H78.0342L83.4732 34H79.5974L78.698 31.3447ZM77.7558 28.5182L75.8929 23.0149L74.0513 28.5182H77.7558ZM92.7945 34L89.6682 28.3255H88.7902V34H85.1286V18.9678H91.2742C92.4591 18.9678 93.4655 19.1748 94.2935 19.5888C95.1357 20.0028 95.7639 20.5738 96.1778 21.3019C96.5918 22.0157 96.7988 22.8151 96.7988 23.7002C96.7988 24.6995 96.5133 25.5917 95.9423 26.3768C95.3856 27.162 94.5576 27.7187 93.4583 28.0471L96.9273 34H92.7945ZM88.7902 25.7344H91.0601C91.731 25.7344 92.2306 25.5703 92.559 25.2419C92.9016 24.9136 93.0729 24.4496 93.0729 23.8501C93.0729 23.279 92.9016 22.8294 92.559 22.501C92.2306 22.1727 91.731 22.0085 91.0601 22.0085H88.7902V25.7344ZM107.813 34L102.759 27.3619V34H99.0974V18.9678H102.759V25.5631L107.77 18.9678H112.074L106.249 26.334L112.288 34H107.813ZM117.69 21.9015V24.9421H122.594V27.7687H117.69V31.0664H123.236V34H114.028V18.9678H123.236V21.9015H117.69ZM136.427 18.9678V21.9015H132.444V34H128.782V21.9015H124.799V18.9678H136.427ZM154.259 23.8072C154.259 24.678 154.059 25.4775 153.659 26.2055C153.259 26.9193 152.645 27.4975 151.817 27.94C150.989 28.3826 149.962 28.6038 148.734 28.6038H146.464V34H142.802V18.9678H148.734C149.933 18.9678 150.947 19.1748 151.775 19.5888C152.603 20.0028 153.224 20.5738 153.638 21.3019C154.052 22.0299 154.259 22.8651 154.259 23.8072ZM148.456 25.6916C149.155 25.6916 149.676 25.5274 150.019 25.1991C150.361 24.8708 150.533 24.4068 150.533 23.8072C150.533 23.2077 150.361 22.7437 150.019 22.4154C149.676 22.087 149.155 21.9229 148.456 21.9229H146.464V25.6916H148.456ZM159.827 31.1734H164.623V34H156.165V18.9678H159.827V31.1734ZM175.727 31.3447H170.117L169.218 34H165.385L170.824 18.9678H175.063L180.502 34H176.627L175.727 31.3447ZM174.785 28.5182L172.922 23.0149L171.081 28.5182H174.785ZM181.537 26.4625C181.537 24.9778 181.858 23.6573 182.5 22.501C183.143 21.3304 184.035 20.4239 185.177 19.7815C186.333 19.1249 187.64 18.7965 189.096 18.7965C190.88 18.7965 192.408 19.2676 193.678 20.2098C194.949 21.152 195.798 22.4368 196.226 24.0642H192.201C191.901 23.4361 191.473 22.9578 190.916 22.6295C190.373 22.3012 189.752 22.137 189.053 22.137C187.925 22.137 187.012 22.5296 186.312 23.3147C185.613 24.0999 185.263 25.1491 185.263 26.4625C185.263 27.7758 185.613 28.8251 186.312 29.6103C187.012 30.3954 187.925 30.788 189.053 30.788C189.752 30.788 190.373 30.6238 190.916 30.2955C191.473 29.9672 191.901 29.4889 192.201 28.8608H196.226C195.798 30.4882 194.949 31.773 193.678 32.7152C192.408 33.6431 190.88 34.1071 189.096 34.1071C187.64 34.1071 186.333 33.7859 185.177 33.1435C184.035 32.4868 183.143 31.5803 182.5 30.424C181.858 29.2676 181.537 27.9472 181.537 26.4625ZM202.13 21.9015V24.9421H207.034V27.7687H202.13V31.0664H207.677V34H198.469V18.9678H207.677V21.9015H202.13Z" fill="white"/>
<path d="M22.5141 0L0 23.1111H11.0784L33.8307 0H22.5141ZM23.8245 13.2741L1.31034 36.3852H12.3887L35.1411 13.2741H23.8245ZM26.6834 24.8889L4.16928 48H15.2476L38 24.8889H26.6834Z" fill="#F2A809"/>
</svg>
